<?xml version="1.0" standalone="no"?>
<!DOCTYPE svg PUBLIC "-//W3C//DTD SVG 20010904//EN"
 "http://www.w3.org/TR/2001/REC-SVG-20010904/DTD/svg10.dtd">
<svg version="1.0" xmlns="http://www.w3.org/2000/svg"
 width="700.000000pt" height="700.000000pt" viewBox="0 0 700.000000 700.000000"
 preserveAspectRatio="xMidYMid meet">
<metadata>
Created by potrace 1.11, written by Peter Selinger 2001-2013
</metadata>
<g transform="translate(0.000000,700.000000) scale(0.100000,-0.100000)"
fill="#000000" stroke="none">
<path d="M2 4233 l3 -2477 570 -2 c314 -1 575 -2 581 -3 7 -1 10 -215 10 -726
-1 -399 2 -725 5 -725 4 0 96 64 205 143 110 78 209 149 221 157 12 8 109 78
215 154 278 201 381 275 452 326 35 25 137 98 227 162 90 65 289 207 441 316
l277 198 1895 -1 1896 0 0 2478 0 2477 -3500 0 -3500 0 2 -2477z m2184 408
c167 -59 280 -209 289 -385 5 -85 -8 -148 -45 -223 -133 -268 -500 -322 -704
-103 -86 94 -126 199 -120 318 14 293 305 489 580 393z m1431 9 c121 -39 227
-128 275 -230 80 -168 46 -371 -80 -494 -88 -85 -176 -125 -286 -132 -350 -20
-577 358 -400 662 34 58 121 138 180 165 100 45 223 57 311 29z m1438 5 c196
-38 350 -242 339 -451 -10 -183 -153 -357 -329 -399 -267 -63 -523 126 -541
400 -18 288 240 506 531 450z"/>
</g>
</svg>
